<?xml version="1.0" standalone="no"?><!DOCTYPE svg PUBLIC "-//W3C//DTD SVG 1.1//EN" "http://www.w3.org/Graphics/SVG/1.1/DTD/svg11.dtd"><svg t="1526264174115" class="icon" style="" viewBox="0 0 1024 1024" version="1.1" xmlns="http://www.w3.org/2000/svg" p-id="2605" xmlns:xlink="http://www.w3.org/1999/xlink" width="28" height="28"><defs><style type="text/css"></style></defs><path fill="#43B171" d="M512 725.333333c-25.6 0-42.666667-17.066667-42.666667-42.666666v-85.333334c0-21.333333 17.066667-42.666667 42.666667-42.666666 21.333333 0 42.666667 17.066667 42.666667 42.666666v85.333334c0 25.6-17.066667 42.666667-42.666667 42.666666z" p-id="2606"></path><path fill="#43B171" d="M832 640c12.8 0 21.333333-8.533333 21.333333-21.333333V512c0-46.933333-38.4-85.333333-85.333333-85.333333h-42.666667V384c0-119.466667-93.866667-213.333333-213.333333-213.333333S298.666667 264.533333 298.666667 384v42.666667H256c-46.933333 0-85.333333 38.4-85.333333 85.333333v256c0 46.933333 38.4 85.333333 85.333333 85.333333h512c46.933333 0 85.333333-38.4 85.333333-85.333333v-21.333333c0-12.8-8.533333-21.333333-21.333333-21.333334s-21.333333 8.533333-21.333333 21.333334v21.333333c0 25.6-17.066667 42.666667-42.666667 42.666667H256c-25.6 0-42.666667-17.066667-42.666667-42.666667v-256c0-25.6 17.066667-42.666667 42.666667-42.666667h512c25.6 0 42.666667 17.066667 42.666667 42.666667v106.666667c0 12.8 8.533333 21.333333 21.333333 21.333333zM341.333333 426.666667V384c0-93.866667 76.8-170.666667 170.666667-170.666667s170.666667 76.8 170.666667 170.666667v42.666667H341.333333z" p-id="2607"></path></svg>