<?xml version="1.0" standalone="no"?><!DOCTYPE svg PUBLIC "-//W3C//DTD SVG 1.1//EN" "http://www.w3.org/Graphics/SVG/1.1/DTD/svg11.dtd"><svg t="1526891610936" class="icon" style="" viewBox="0 0 1024 1024" version="1.1" xmlns="http://www.w3.org/2000/svg" p-id="1882" xmlns:xlink="http://www.w3.org/1999/xlink" width="32" height="32"><defs><style type="text/css"></style></defs><path fill="#B3B3B4" d="M1006.410118 838.03142V837.99342c-0.019-3.639971-0.761994-7.111944-2.023984-10.323918-0.037-0.110999-0.019-0.222998-0.056-0.334998a0.414997 0.414997 0 0 1-0.092999-0.147999 28.303778 28.303778 0 0 0-6.164951-9.284927c-0.019 0-0.019-0.019-0.037-0.037L840.950417 660.500814c-11.122913-11.141913-29.173771-11.178912-40.334683-0.037-11.141913 11.104913-11.159912 29.173771-0.037 40.334684l108.543148 108.746146H545.352738c-15.747876 0-28.523776 12.7579-28.523776 28.523776 0 15.746876 12.7759 28.522776 28.523776 28.522776h363.769144L800.578734 975.338342c-11.122913 11.142913-11.103913 29.191771 0.037 40.334683 5.570956 5.552956 12.850899 8.318935 20.148842 8.318935 7.315943 0 14.613885-2.784978 20.185841-8.355934l157.084767-157.399764c0.019 0 0.019-0.019 0.037-0.037a28.206779 28.206779 0 0 0 6.164951-9.266927c0.019-0.056 0.056-0.092999 0.092999-0.166999 0.037-0.092999 0.019-0.222998 0.056-0.333998 1.26299-3.193975 2.005984-6.647948 2.023984-10.306919v-0.055999-0.037zM505.928048 57.047552c179.60959 0 325.737442 146.127853 325.737442 325.737443 0 60.278527-16.768868 119.294063-48.522619 170.64066-8.282935 13.407895-4.122968 30.975757 9.265927 39.257692 13.407895 8.244935 30.956757 4.141967 39.275692-9.266928 37.307707-60.371526 57.028552-129.748981 57.028552-200.631424C888.713042 171.717652 716.99539 0 505.928048 0S123.142053 171.717652 123.142053 382.784995c0 157.715762 95.58025 297.195667 240.223114 354.968212v82.971349c-27.427785 1.893985-68.597461 6.016953-95.46925 14.743884-91.829279 29.508768-176.043618 88.914302-239.145123 137.381922-12.497902 9.600925-14.855883 27.502784-5.254958 39.999686C29.103791 1020.16699 37.570725 1023.99196 46.131658 1023.99196a28.415777 28.415777 0 0 0 17.362863-5.886954c59.442533-45.663641 138.383913-101.504203 221.950258-128.337992 28.114779-9.154928 87.019317-12.850899 107.353157-13.481894 15.747876-0.519996 28.096779-13.666893 27.594783-29.414769-0.037-1.187991-0.278998-2.302982-0.463996-3.435973 0.259998-1.559988 0.482996-3.138975 0.482996-4.771963V737.678208c0-1.112991-0.203998-2.152983-0.333997-3.229975 1.22599-1.949985 2.432981-3.899969 3.175975-6.165951 4.864962-14.984882-3.342974-31.085756-18.310856-35.950718-134.428945-43.658657-224.753235-168.05968-224.753236-309.545569 0-179.61059 146.127853-325.738442 325.738443-325.738443z" p-id="1883"></path></svg>
