<?xml version="1.0" standalone="no"?><!DOCTYPE svg PUBLIC "-//W3C//DTD SVG 1.1//EN" "http://www.w3.org/Graphics/SVG/1.1/DTD/svg11.dtd"><svg t="1525747005644" class="icon" style="" viewBox="0 0 1024 1024" version="1.1" xmlns="http://www.w3.org/2000/svg" p-id="4335" xmlns:xlink="http://www.w3.org/1999/xlink" width="32" height="32"><defs><style type="text/css"></style></defs><path d="M710.716342 284.812721l-512.788969 0c-14.145162 0-25.611308 11.467169-25.611308 25.611308s11.467169 25.611308 25.611308 25.611308l512.788969 0c14.145162 0 25.611308-11.467169 25.611308-25.611308S724.862527 284.812721 710.716342 284.812721zM710.716342 401.356041l-512.788969 0c-14.145162 0-25.611308 11.467169-25.611308 25.611308s11.467169 25.611308 25.611308 25.611308l512.788969 0c14.145162 0 25.611308-11.467169 25.611308-25.611308S724.862527 401.356041 710.716342 401.356041zM594.175069 517.900384 197.927373 517.900384c-14.145162 0-25.611308 11.466146-25.611308 25.611308s11.467169 25.611308 25.611308 25.611308l396.247696 0c14.145162 0 25.611308-11.466146 25.611308-25.611308S608.320231 517.900384 594.175069 517.900384zM841.164347 521.773598c0.031722-0.521886 0.053212-1.045819 0.053212-1.575892l0-293.914006c0-38.415938-31.251771-69.668733-69.666686-69.668733L137.09489 156.614967c-38.415938 0-69.668733 31.252795-69.668733 69.668733l0 401.369344c0 38.414915 31.252795 69.667709 69.668733 69.667709l110.010533 0c10.17064 0 18.445094 8.274454 18.445094 18.444071l0 151.48411 193.053877-165.484985c3.344165-2.866281 7.611352-4.444219 12.015661-4.444219l193.474456 0c2.753717 0 5.40408-0.440022 7.890714-1.24434 16.888645 58.233286 70.706365 100.92869 134.314055 100.92869 77.090772 0 139.809209-62.721507 139.809209-139.817396C946.10849 592.126922 901.441175 537.304316 841.164347 521.773598zM666.902464 646.252657c-0.921999-0.100284-1.858324-0.155543-2.807952-0.155543L470.620056 646.097114c-16.619516 0-32.724309 5.954619-45.348837 16.773012l-108.497063 93.004207L316.774155 715.764823c0-38.414915-31.253818-69.667709-69.668733-69.667709L137.09489 646.097114c-10.17064 0-18.445094-8.274454-18.445094-18.444071L118.649795 226.2837c0-10.17064 8.274454-18.445094 18.445094-18.445094l634.455983 0c10.169617 0 18.443048 8.274454 18.443048 18.445094L789.99392 518.328126C724.119607 526.014178 672.078347 579.658959 666.902464 646.252657zM806.299281 745.781464c-48.853661 0-88.598874-39.743166-88.598874-88.593757 0-48.849568 39.745213-88.591711 88.598874-88.591711 48.845475 0 88.585571 39.742143 88.585571 88.591711C894.884852 706.038298 855.144756 745.781464 806.299281 745.781464zM848.69281 597.689614l-81.864496 0c-14.145162 0-25.611308 11.466146-25.611308 25.611308s11.466146 25.611308 25.611308 25.611308l81.864496 0c14.145162 0 25.611308-11.466146 25.611308-25.611308S862.837972 597.689614 848.69281 597.689614zM848.69281 665.252383l-81.864496 0c-14.145162 0-25.611308 11.466146-25.611308 25.611308s11.466146 25.611308 25.611308 25.611308l81.864496 0c14.145162 0 25.611308-11.466146 25.611308-25.611308S862.837972 665.252383 848.69281 665.252383z" fill="#73BD8B" p-id="4336"></path></svg>